<?xml version="1.0" encoding="UTF-8" standalone="no"?>
<!-- Created with Inkscape (http://www.inkscape.org/) -->

<svg
   width="680"
   height="120"
   viewBox="0 0 179.91666 31.75"
   version="1.1"
   id="svg1"
   inkscape:version="1.4.2 (2aeb623e1d, 2025-05-12)"
   sodipodi:docname="leap-logo-1.svg"
   xmlns:inkscape="http://www.inkscape.org/namespaces/inkscape"
   xmlns:sodipodi="http://sodipodi.sourceforge.net/DTD/sodipodi-0.dtd"
   xmlns="http://www.w3.org/2000/svg"
   xmlns:svg="http://www.w3.org/2000/svg">
  <sodipodi:namedview
     id="namedview1"
     pagecolor="#ffffff"
     bordercolor="#000000"
     borderopacity="0.25"
     inkscape:showpageshadow="2"
     inkscape:pageopacity="0.0"
     inkscape:pagecheckerboard="0"
     inkscape:deskcolor="#d1d1d1"
     inkscape:document-units="px"
     inkscape:zoom="2.8614198"
     inkscape:cx="113.05576"
     inkscape:cy="93.135583"
     inkscape:window-width="1191"
     inkscape:window-height="991"
     inkscape:window-x="26"
     inkscape:window-y="23"
     inkscape:window-maximized="0"
     inkscape:current-layer="layer5"
     showguides="true">
    <sodipodi:guide
       position="179.93446,310.59979"
       orientation="1,0"
       id="guide4"
       inkscape:locked="false" />
    <sodipodi:guide
       position="-27.853226,265.22387"
       orientation="0,-1"
       id="guide5"
       inkscape:locked="false" />
  </sodipodi:namedview>
  <defs
     id="defs1" />
  <g
     inkscape:label="Layer 1"
     inkscape:groupmode="layer"
     id="layer1"
     style="display:none"
     sodipodi:insensitive="true">
    <path
       style="fill:#ff35a4;fill-opacity:1;stroke-width:0.178882"
       d="m 4.9787777,25.321772 c -0.748549,1.076824 4.117443,3.315702 5.9120913,3.274086 4.13091,-0.09579 8.828325,-2.427576 8.569619,-3.033067 -0.258706,-0.605491 -2.545866,1.757751 -7.98117,1.907754 -5.4353043,0.150003 -5.7519913,-3.225597 -6.5005403,-2.148773 z"
       id="path1"
       sodipodi:nodetypes="zszzz" />
    <path
       style="fill:#7514c4;fill-opacity:1;stroke-width:0.264583"
       d="m 6.0406567,23.679384 c 1.430689,0.62304 1.965569,-2.345563 3.115186,-3.858652 1.1496183,-1.513089 4.1385483,-3.737337 2.9741603,-4.444572 -0.757884,-0.460329 -4.2904773,2.53641 -5.2247343,3.538613 -1.15612,1.240202 -2.091616,4.230272 -0.864612,4.764611 z m 7.4211103,-8.847643 c 1.475884,1.500208 2.502044,-0.940203 4.107427,-2.401774 1.499792,-1.365439 4.202924,-3.4027646 3.65315,-4.2186176 -0.339096,-0.50321 -2.237136,0.935438 -4.210334,2.4131596 -2.531741,1.896014 -4.471333,2.891956 -3.550243,4.207232 z"
       id="path1-6"
       sodipodi:nodetypes="szssscsssc" />
    <path
       style="fill:#7514c4;fill-opacity:1;stroke-width:0.264583"
       d="m 7.3547507,7.5570954 c -0.733953,0.591277 -0.155574,1.847559 0.981132,3.3599716 1.136707,1.512413 3.2974723,3.49183 3.9321313,2.983403 0.620749,-0.497284 -1.194086,-2.489609 -2.5089183,-4.5283376 -0.581008,-0.900889 -1.432268,-2.598146 -2.404345,-1.815037 z m 6.3502183,5.6323726 c -1.878049,1.624825 0.823424,4.864155 1.803194,5.607676 1.070595,0.812445 3.328206,1.416913 3.554025,0.666939 0.277622,-0.922014 -2.026555,-1.235191 -2.934287,-2.306209 -1.063049,-1.254274 -0.914747,-4.761039 -2.422932,-3.968406 z m 0.978546,-9.0092116 c -1.093452,-0.0098 -1.003869,1.190234 -1.108118,1.998789 -0.129281,1.002706 0.03722,2.192095 0.939826,2.10537 0.593977,-0.05707 1.26024,-1.001642 1.16786,-2.008301 -0.07131,-0.777032 0.344196,-2.056299 -0.999568,-2.095858 z"
       id="path3"
       sodipodi:nodetypes="szssscsssccsssc" />
  </g>
  <g
     inkscape:groupmode="layer"
     id="layer3"
     inkscape:label="leap"
     style="display:inline"
     sodipodi:insensitive="true">
    <path
       style="display:inline;fill:#7514c4;fill-opacity:1;stroke-width:0.264583"
       d="m 6.1236016,22.74108 c 1.4306881,0.62304 2.6128275,-2.068166 3.7624439,-3.581255 1.1496175,-1.513089 3.6581335,-4.362736 2.3268995,-4.721969 -0.628721,-0.16966 -3.7998179,0.624655 -5.243883,2.78138 -1.1995154,1.791489 -2.0724638,4.987505 -0.8454604,5.521844 z m 7.4211074,-8.847643 c 1.475884,1.500208 2.502044,-0.940203 4.107427,-2.401774 1.499792,-1.365439 4.162321,-3.3768259 3.65315,-4.2186173 -0.610293,-1.0089724 -9.753122,4.5780003 -7.760577,6.6203913 z"
       id="path6"
       sodipodi:nodetypes="szssscssc" />
    <path
       style="display:inline;fill:#7514c4;fill-opacity:1;stroke-width:0.264583"
       d="m 7.306928,8.6844618 c -0.43087,0.3923577 0.2205957,1.2319004 0.6542164,1.6212172 1.4156314,1.270995 4.7485926,2.268467 5.4914686,1.555229 C 14.309342,11.038359 9.0119408,7.1318437 7.306928,8.6844618 Z m 6.480983,3.5667022 c -0.234756,0.203103 -0.403736,0.434322 -0.517803,0.684908 -0.114066,0.250585 -0.173219,0.520536 -0.188321,0.801102 -0.0151,0.280567 0.01385,0.571749 0.07599,0.864796 0.06214,0.293047 0.157466,0.58796 0.27512,0.875987 0.117655,0.288027 0.257636,0.569169 0.409081,0.834676 6.617922,11.602141 3.354591,-5.049925 -0.05406,-4.061469 z m 0.978546,-7.9508788 c -1.093414,-0.01338 -1.483041,1.1373234 -1.477981,1.8600891 0.0226,3.2280152 2.142302,2.8385945 2.616248,0.2126517 0.0905,-0.7076824 0.205497,-2.0562978 -1.138267,-2.0727408 z"
       id="path7"
       sodipodi:nodetypes="aasacsssssccsscs" />
  </g>
  <g
     inkscape:groupmode="layer"
     id="layer4"
     inkscape:label="bowl">
    <path
       style="display:inline;fill:#8c64df;fill-opacity:1;stroke-width:0.264583"
       d="m 19.686396,25.209015 c 1.255306,-0.269662 0.900875,2.370193 -6.166552,3.168745 -7.0674263,0.798553 -9.1771793,-2.223689 -8.7070373,-3.519914 0.476504,-1.313764 6.0114913,2.254911 14.8735893,0.351169 z"
       id="path6-2"
       sodipodi:nodetypes="szss" />
  </g>
  <g
     inkscape:groupmode="layer"
     id="layer5"
     inkscape:label="companion"
     sodipodi:insensitive="true"
     style="display:none">
    <path
       style="display:inline;fill:#8c64df;fill-opacity:1;stroke-width:0.168815"
       d="m 32.392935,23.672293 c 0.912837,0.397524 1.667089,-1.319573 2.400591,-2.284985 0.733502,-0.965411 2.334036,-2.7836 1.484656,-3.012805 -0.40115,-0.10825 -2.424437,0.398554 -3.345809,1.774632 -0.76534,1.143041 -1.322316,3.182228 -0.539438,3.523158 z M 37.1279,18.027141 c 0.941674,0.957193 1.596405,-0.599887 2.620704,-1.532428 0.956927,-0.871205 2.655728,-2.154551 2.330856,-2.691648 -0.389391,-0.643765 -6.222883,2.920949 -4.95156,4.224076 z"
       id="path8"
       sodipodi:nodetypes="szssscssc" />
    <path
       style="display:inline;fill:#8c64df;fill-opacity:1;stroke-width:0.168815"
       d="m 33.147945,14.703605 c -0.274913,0.250341 0.140749,0.786003 0.417416,1.034402 0.90323,0.810947 3.029794,1.447374 3.503779,0.992299 0.546627,-0.524819 -2.833328,-3.017334 -3.921195,-2.026701 z m 4.135128,2.2757 c -0.149784,0.129588 -0.2576,0.277115 -0.330379,0.436999 -0.07278,0.159883 -0.110521,0.332123 -0.120156,0.511135 -0.0096,0.179013 0.0088,0.364799 0.04848,0.551775 0.03965,0.186976 0.10047,0.375142 0.175538,0.558915 0.07507,0.183772 0.164382,0.363152 0.26101,0.532556 4.2225,7.402632 2.140364,-3.222055 -0.03449,-2.59138 z m 0.624352,-5.072981 c -0.697642,-0.0085 -0.94624,0.725658 -0.943011,1.186812 0.01442,2.059604 1.366874,1.811138 1.669271,0.13568 0.05774,-0.45153 0.131115,-1.312001 -0.72626,-1.322492 z"
       id="path9"
       sodipodi:nodetypes="aasacsssssccsscs" />
  </g>
  <g
     inkscape:groupmode="layer"
     id="layer2"
     inkscape:label="dimension"
     style="display:none">
    <rect
       style="fill:#ff35a4;fill-opacity:1;stroke-width:0.68696"
       id="rect3"
       width="179.86995"
       height="31.875687"
       x="0.065384366"
       y="0.42379597"
       transform="matrix(0.99999525,-0.00308201,0,1,0,0)"
       ry="0" />
  </g>
</svg>
