<svg xmlns="http://www.w3.org/2000/svg" version="1.1" xmlns:xlink="http://www.w3.org/1999/xlink" width="96" height="96"><svg width="96" height="96" viewBox="0 0 25.399999 25.4" version="1.1" id="SvgjsSvg1035" inkscape:version="1.4.2 (2aeb623e1d, 2025-05-12)" sodipodi:docname="leap-icon-1.svg" xmlns:inkscape="http://www.inkscape.org/namespaces/inkscape" xmlns:sodipodi="http://sodipodi.sourceforge.net/DTD/sodipodi-0.dtd" xmlns="http://www.w3.org/2000/svg" xmlns:svg="http://www.w3.org/2000/svg">
  <sodipodi:namedview id="SvgjsSodipodi:namedview1034" pagecolor="#ffffff" bordercolor="#000000" borderopacity="0.25" inkscape:showpageshadow="2" inkscape:pageopacity="0.0" inkscape:pagecheckerboard="0" inkscape:deskcolor="#d1d1d1" inkscape:document-units="px" inkscape:zoom="5.7228398" inkscape:cx="56.003665" inkscape:cy="37.65613" inkscape:window-width="1488" inkscape:window-height="991" inkscape:window-x="26" inkscape:window-y="23" inkscape:window-maximized="0" inkscape:current-layer="layer1" showguides="true">
    <sodipodi:guide position="179.93446,304.24979" orientation="1,0" id="SvgjsSodipodi:guide1033" inkscape:locked="false"></sodipodi:guide>
    <sodipodi:guide position="-27.853226,258.87387" orientation="0,-1" id="SvgjsSodipodi:guide1032" inkscape:locked="false"></sodipodi:guide>
    <sodipodi:guide position="25.4,25.007701" orientation="-1,0" id="SvgjsSodipodi:guide1031" inkscape:locked="false" inkscape:label="" inkscape:color="rgb(0,134,229)"></sodipodi:guide>
    <sodipodi:guide position="10.494862,1.764706e-08" orientation="0,1" id="SvgjsSodipodi:guide1030" inkscape:locked="false" inkscape:label="" inkscape:color="rgb(0,134,229)"></sodipodi:guide>
  </sodipodi:namedview>
  <defs id="SvgjsDefs1029">
    <inkscape:path-effect effect="fillet_chamfer" id="SvgjsInkscape:path-effect1028" is_visible="true" lpeversion="1" nodesatellites_param="F,0,0,1,0,0,0,1 @ F,0,0,1,0,0,0,1 @ F,0,0,1,0,0,0,1 @ F,0,0,1,0,0,0,1" radius="0" unit="px" method="auto" mode="F" chamfer_steps="1" flexible="false" use_knot_distance="true" apply_no_radius="true" apply_with_radius="true" only_selected="false" hide_knots="false"></inkscape:path-effect>
  </defs>
  <g inkscape:groupmode="layer" id="SvgjsG1027" inkscape:label="background" style="display:none" sodipodi:insensitive="true">
    <path style="display:none;fill:#000000;stroke-width:0.264583" id="SvgjsPath1026" width="25.56015" height="25.328985" x="-0.13869862" y="0.092465736" inkscape:path-effect="#path-effect2" sodipodi:type="rect" d="M -0.13869862,0.09246574 H 25.421452 V 25.421451 H -0.13869862 Z"></path>
    <ellipse style="display:none;fill:#000000;stroke-width:0.282361" id="SvgjsEllipse1025" cx="12.737158" cy="12.852739" rx="12.413527" ry="12.575342" inkscape:label="circle"></ellipse>
    <path sodipodi:type="star" style="display:none;fill:#ffffff;stroke-width:0.264583" id="SvgjsPath1024" inkscape:flatsided="true" sodipodi:sides="4" sodipodi:cx="8.0445204" sodipodi:cy="-7.2123284" sodipodi:r1="7.193336" sodipodi:r2="6.8840227" sodipodi:arg1="0.80357798" sodipodi:arg2="1.5889761" inkscape:rounded="0.11" inkscape:randomized="-0.05" d="M 13.392859,-2.3881615 C 12.610477,-1.5789734 3.4194188,-1.3004109 2.6307967,-2.1216858 1.8421745,-2.9429607 2.4413099,-11.523097 3.1933753,-12.339861 c 0.7520654,-0.816765 9.2697307,-0.998076 10.0427407,-0.186828 0.77301,0.811248 0.939125,9.3293393 0.156743,10.1385275 z" transform="matrix(2.1292951,0.12075374,-0.13703578,2.1901433,-5.3060243,27.917259)"></path>
  </g>
  <g inkscape:label="companion-1-2" inkscape:groupmode="layer" id="SvgjsG1023" transform="translate(-1.0171232,-2.6352738)" style="display:inline" sodipodi:insensitive="true">
    <path style="fill:#8c64df;fill-opacity:1;stroke-width:0.168815" d="m 16.409354,16.47535 c 0.912837,0.397524 1.667089,-1.319573 2.400591,-2.284985 0.733502,-0.965411 2.334036,-2.7836 1.484656,-3.012805 -0.40115,-0.10825 -2.424437,0.398554 -3.345809,1.774632 -0.76534,1.143041 -1.322316,3.182228 -0.539438,3.523158 z m 4.734965,-5.645152 c 0.941674,0.957193 1.596405,-0.599887 2.620704,-1.5324275 0.956927,-0.8712049 2.655728,-2.1545509 2.330856,-2.691648 -0.389391,-0.6437648 -6.222883,2.9209488 -4.95156,4.2240755 z" id="SvgjsPath1022" sodipodi:nodetypes="szssscssc"></path>
    <path style="fill:#8c64df;fill-opacity:1;stroke-width:0.168815" d="m 17.164364,7.5066632 c -0.274913,0.2503406 0.140749,0.7860027 0.417416,1.0344019 0.90323,0.8109465 3.029794,1.4473732 3.503779,0.9922982 0.546627,-0.524819 -2.833328,-3.0173331 -3.921195,-2.0267001 z m 4.135128,2.2756991 c -0.149784,0.129588 -0.2576,0.2771147 -0.330379,0.4369987 -0.07278,0.159883 -0.110521,0.332123 -0.120156,0.511135 -0.0096,0.179013 0.0088,0.364799 0.04848,0.551775 0.03965,0.186976 0.10047,0.375142 0.175538,0.558915 0.07507,0.183772 0.164382,0.363152 0.26101,0.532556 4.2225,7.402632 2.140364,-3.222054 -0.03449,-2.5913797 z m 0.624352,-5.0729808 c -0.697642,-0.00854 -0.94624,0.7256584 -0.943011,1.1868121 0.01442,2.0596037 1.366874,1.8111377 1.669271,0.1356805 0.05774,-0.4515301 0.131115,-1.3120013 -0.72626,-1.3224926 z" id="SvgjsPath1021" sodipodi:nodetypes="aasacsssssccsscs"></path>
  </g>
  <g inkscape:label="body-1-2" inkscape:groupmode="layer" id="SvgjsG1020" style="display:inline" sodipodi:insensitive="true">
    <path style="fill:#7514c4;fill-opacity:1;stroke-width:0.264583" d="m 0.77010908,23.186408 c 1.43068902,0.62304 2.61282932,-2.068166 3.76244632,-3.581255 1.149618,-1.513089 3.658134,-4.362736 2.3269,-4.721969 -0.628721,-0.16966 -3.7998191,0.624655 -5.2438846,2.78138 -1.19951652,1.791489 -2.07246572,4.987505 -0.84546172,5.521844 z M 8.1912194,14.338765 c 1.475884,1.500208 2.5020436,-0.940203 4.1074266,-2.401774 1.499792,-1.365439 4.162321,-3.376827 3.65315,-4.218619 -0.610293,-1.0089723 -9.7531216,4.578002 -7.7605766,6.620393 z" id="SvgjsPath1019" sodipodi:nodetypes="szssscssc"></path>
    <path style="fill:#7514c4;fill-opacity:1;stroke-width:0.264583" d="M 1.9534368,9.129789 C 1.5225669,9.5221473 2.1740327,10.36169 2.607653,10.751007 4.023285,12.022002 7.3562474,13.019474 8.0991234,12.306236 8.9558524,11.483687 3.6584508,7.57717 1.9534368,9.129789 Z m 6.4809846,3.566703 c -0.234756,0.203103 -0.403736,0.434322 -0.517803,0.684908 -0.114066,0.250585 -0.173219,0.520536 -0.188321,0.801102 -0.0151,0.280567 0.01385,0.571749 0.07599,0.864796 0.06214,0.293047 0.157466,0.58796 0.27512,0.875987 0.117655,0.288027 0.257636,0.569169 0.409081,0.834676 6.6179216,11.602141 3.3545906,-5.049925 -0.05406,-4.061469 z m 0.978546,-7.9508813 c -1.093414,-0.013379 -1.483041,1.137324 -1.477981,1.86009 0.0226,3.2280166 2.1423016,2.8385953 2.6162476,0.212652 0.0905,-0.707683 0.205497,-2.056299 -1.1382666,-2.072742 z" id="SvgjsPath1018" sodipodi:nodetypes="aasacsssssccsscs"></path>
  </g>
</svg><style>@media (prefers-color-scheme: light) { :root { filter: none; } }
@media (prefers-color-scheme: dark) { :root { filter: none; } }
</style></svg>